<?xml version="1.0" encoding="UTF-8"?>
<svg id="Layer_2" xmlns="http://www.w3.org/2000/svg" version="1.1" xmlns:xlink="http://www.w3.org/1999/xlink" viewBox="0 0 100 100">
  <!-- Generator: Adobe Illustrator 30.6.0, SVG Export Plug-In . SVG Version: 2.1.4 Build 109)  -->
  <defs>
    <style>
      .st0 {
        fill: url(#linear-gradient);
      }
    </style>
    <linearGradient id="linear-gradient" x1="-1.1" y1="50.2" x2="101.1" y2="53.8" gradientTransform="translate(0 102) scale(1 -1)" gradientUnits="userSpaceOnUse">
      <stop offset="0" stop-color="#c7d2fd"/>
      <stop offset=".2" stop-color="#e0cee6"/>
      <stop offset=".4" stop-color="#f5ccd3"/>
      <stop offset=".7" stop-color="#fed9c8"/>
      <stop offset=".8" stop-color="#fee9c6"/>
      <stop offset="1" stop-color="#fef9c3"/>
    </linearGradient>
  </defs>
  <rect class="st0" width="100" height="100" rx="16.4" ry="16.4"/>
  <g>
    <path d="M55.5,47.3h0c0-3-2.5-5.4-5.5-5.4h-10.8v-10.8h0c-3,0-5.5,2.5-5.5,5.6v21.4c0,3,2.5,5.5,5.5,5.5h0c0,3,2.4,5.4,5.4,5.4h10.8v-5.4c0,0,5.4,0,5.4,0v-10.8c0-3-2.4-5.3-5.3-5.4h0ZM39.2,63.5v-16.2h16.1v16.1h-16.1Z"/>
    <path d="M87.8,31.1v10.8h-10.7c-3,0-5.4,2.4-5.5,5.4h0c-3,0-5.4,2.5-5.4,5.5v10.7h5.4s0,5.5,0,5.5h10.7c3,0,5.4-2.4,5.5-5.4h0c3,0,5.4-2.5,5.4-5.4v-21.5c0-3-2.4-5.4-5.4-5.4h0ZM87.7,63.5h-16.1v-16.1h16.1v13.4s0,2.7,0,2.7Z"/>
    <path d="M28.4,68.9h-5.4c-3,0-5.4-2.4-5.4-5.4h0c-3,0-5.3-2.4-5.4-5.4v-10.8h-5.4v-2.8c0-1.5,1.2-2.7,2.7-2.7h2.7v-5.5c0-3,2.4-5.3,5.4-5.3h0v10.8h10.8v5.5h-10.8v16.2h10.8v5.4s0,0,0,0Z"/>
  </g>
</svg>