<svg xmlns="http://www.w3.org/2000/svg" viewBox="0 0 1600 900" role="img" aria-labelledby="title desc">
  <title id="title">Taste and editing in the age of AI</title><desc id="desc">Repeated fashionable forms are interrupted by one restrained, carefully proportioned composition.</desc>
  <defs><linearGradient id="g" x1="0" y1="0" x2="1" y2="1"><stop stop-color="#c7d2fe"/><stop offset=".5" stop-color="#fecaca"/><stop offset="1" stop-color="#fef9c3"/></linearGradient><pattern id="grid" width="56" height="56" patternUnits="userSpaceOnUse"><path d="M56 0H0V56" fill="none" stroke="#fff" stroke-opacity=".05"/></pattern><filter id="blur"><feGaussianBlur stdDeviation="65"/></filter></defs>
  <rect width="1600" height="900" fill="#08090b"/><rect width="1600" height="900" fill="url(#grid)"/><circle cx="800" cy="430" r="360" fill="#fecaca" opacity=".11" filter="url(#blur)"/>
  <g fill="none" stroke="#fff" stroke-opacity=".17"><path d="M120 170c120-90 235-65 315 25s68 218-28 292-221 60-295-38-62-204 8-279z"/><path d="M465 170c120-90 235-65 315 25s68 218-28 292-221 60-295-38-62-204 8-279z"/><path d="M810 170c120-90 235-65 315 25s68 218-28 292-221 60-295-38-62-204 8-279z"/></g>
  <g opacity=".42" fill="url(#g)"><circle cx="275" cy="330" r="92"/><circle cx="620" cy="330" r="92"/><circle cx="965" cy="330" r="92"/></g>
  <rect x="1135" y="150" width="330" height="560" rx="26" fill="#111318" stroke="url(#g)" stroke-width="3"/><path d="M1190 595C1260 430 1330 515 1410 300" fill="none" stroke="url(#g)" stroke-width="5"/><circle cx="1410" cy="300" r="11" fill="#fef9c3"/>
  <path d="M175 665H1020" stroke="#fff" stroke-opacity=".18"/><path d="M175 705H720" stroke="url(#g)" stroke-width="3"/>
</svg>
