<svg xmlns="http://www.w3.org/2000/svg" viewBox="0 0 1600 900" role="img" aria-labelledby="title desc">
  <title id="title">Design foundations and production craft</title><desc id="desc">An abstract typographic grid, measured blocks and production marks arranged on a dark field.</desc>
  <defs><linearGradient id="g" x1="0" y1="1" x2="1" y2="0"><stop stop-color="#c7d2fe"/><stop offset=".5" stop-color="#fecaca"/><stop offset="1" stop-color="#fef9c3"/></linearGradient><pattern id="grid" width="80" height="80" patternUnits="userSpaceOnUse"><path d="M80 0H0V80" fill="none" stroke="#fff" stroke-opacity=".055"/></pattern><filter id="blur"><feGaussianBlur stdDeviation="60"/></filter></defs>
  <rect width="1600" height="900" fill="#090a0c"/><rect width="1600" height="900" fill="url(#grid)"/><circle cx="260" cy="180" r="250" fill="#fef9c3" opacity=".13" filter="url(#blur)"/><circle cx="1350" cy="720" r="300" fill="#c7d2fe" opacity=".15" filter="url(#blur)"/>
  <g fill="none" stroke="#fff" stroke-opacity=".22"><rect x="185" y="150" width="1230" height="600" rx="22"/><path d="M430 150V750M920 150V750M185 360H1415M185 610H1415"/></g>
  <g fill="url(#g)"><rect x="235" y="215" width="145" height="88" rx="44"/><rect x="482" y="418" width="385" height="28" rx="14"/><rect x="482" y="472" width="268" height="18" rx="9" opacity=".6"/><circle cx="1165" cy="482" r="118" opacity=".76"/></g>
  <g fill="none" stroke="url(#g)" stroke-width="3"><path d="M242 678H846"/><path d="M1015 252h295M1015 286h210" opacity=".55"/></g>
</svg>
