<svg xmlns="http://www.w3.org/2000/svg" viewBox="0 0 1600 900" role="img" aria-labelledby="title desc">
  <title id="title">Vibe coding and custom website systems</title><desc id="desc">Abstract interface frames connected by flowing iridescent lines on a dark grid.</desc>
  <defs><linearGradient id="g" x1="0" y1="0" x2="1" y2="1"><stop stop-color="#c7d2fe"/><stop offset=".52" stop-color="#fecaca"/><stop offset="1" stop-color="#fef9c3"/></linearGradient><pattern id="grid" width="64" height="64" patternUnits="userSpaceOnUse"><path d="M64 0H0V64" fill="none" stroke="#fff" stroke-opacity=".06"/></pattern><filter id="blur"><feGaussianBlur stdDeviation="55"/></filter></defs>
  <rect width="1600" height="900" fill="#08090b"/><rect width="1600" height="900" fill="url(#grid)"/><circle cx="1250" cy="180" r="240" fill="#fecaca" opacity=".18" filter="url(#blur)"/><circle cx="310" cy="760" r="280" fill="#c7d2fe" opacity=".14" filter="url(#blur)"/>
  <g fill="#111318" stroke="#fff" stroke-opacity=".22"><rect x="180" y="185" width="530" height="330" rx="28"/><rect x="885" y="365" width="535" height="340" rx="28"/><rect x="610" y="105" width="355" height="205" rx="24"/></g>
  <g fill="none" stroke="url(#g)" stroke-width="3"><path d="M210 670C430 490 625 720 820 458S1190 170 1430 280"/><path d="M145 590C420 370 670 620 842 352S1185 100 1495 205" opacity=".48"/></g>
  <g fill="url(#g)"><circle cx="515" cy="559" r="8"/><circle cx="822" cy="455" r="10"/><circle cx="1138" cy="267" r="7"/></g>
</svg>
